<svg width="28" height="28" viewBox="0 0 28 28" fill="none" xmlns="http://www.w3.org/2000/svg">
<path d="M26.32 14.2915C26.32 13.3815 26.2383 12.5065 26.0867 11.6665H14V16.6307H20.9067C20.6092 18.2348 19.705 19.594 18.3458 20.504V23.724H22.4933C24.92 21.4898 26.32 18.1998 26.32 14.2915Z" fill="#4285F4"/>
<path d="M14 26.8335C17.465 26.8335 20.37 25.6843 22.4933 23.7243L18.3458 20.5043C17.1966 21.2743 15.7266 21.7293 14 21.7293C10.6574 21.7293 7.82828 19.4718 6.81912 16.4385H2.53162V19.7635C4.64328 23.9576 8.98328 26.8335 14 26.8335Z" fill="#34A853"/>
<path d="M6.81913 16.4385C6.56246 15.6685 6.41663 14.846 6.41663 14.0002C6.41663 13.1543 6.56246 12.3318 6.81913 11.5618V8.23682H2.53163C1.63329 10.0252 1.16583 11.9989 1.16663 14.0002C1.16663 16.071 1.66246 18.031 2.53163 19.7635L6.81913 16.4385Z" fill="#FBBC05"/>
<path d="M13.9999 6.27067C15.8841 6.27067 17.5758 6.91817 18.9058 8.18984L22.5866 4.509C20.3641 2.43817 17.4591 1.1665 13.9999 1.1665C8.98328 1.1665 4.64328 4.04234 2.53162 8.2365L6.81912 11.5615C7.82828 8.52817 10.6574 6.27067 13.9999 6.27067Z" fill="#EA4335"/>
</svg>
