<svg width="20" height="20" viewBox="0 0 20 20" fill="none" xmlns="http://www.w3.org/2000/svg">
<path d="M17.0409 16.9475H14.0776V12.3823C14.0776 11.2937 14.0578 9.89233 12.5363 9.89233C10.9929 9.89233 10.7567 11.0784 10.7567 12.3031V16.9472H7.79336V7.55934H10.6382V8.84229H10.678C10.9627 8.36343 11.3741 7.96951 11.8684 7.70246C12.3627 7.43542 12.9214 7.30525 13.4849 7.32583C16.4884 7.32583 17.0422 9.26923 17.0422 11.7975L17.0409 16.9475ZM4.44969 6.27609C4.10957 6.27615 3.77706 6.177 3.49422 5.99116C3.21139 5.80533 2.99094 5.54117 2.86073 5.23208C2.73051 4.92299 2.69638 4.58286 2.76268 4.25469C2.82897 3.92653 2.99271 3.62508 3.23317 3.38845C3.47363 3.15182 3.78002 2.99065 4.11359 2.92532C4.44716 2.85999 4.79293 2.89343 5.10719 3.02141C5.42144 3.14939 5.69006 3.36617 5.87907 3.64433C6.06808 3.92249 6.16901 4.24954 6.16907 4.58412C6.16911 4.80627 6.12466 5.02626 6.03827 5.23152C5.95189 5.43677 5.82527 5.62328 5.66561 5.7804C5.50595 5.93751 5.31638 6.06215 5.10775 6.1472C4.89913 6.23225 4.67552 6.27605 4.44969 6.27609ZM5.93137 16.9475H2.96491V7.55934H5.93137V16.9475ZM18.5183 0.185667H1.47583C1.08901 0.181372 0.716265 0.328323 0.439533 0.594225C0.162802 0.860128 0.00472088 1.22323 0 1.60374V18.4381C0.00455931 18.8188 0.162547 19.1822 0.43927 19.4483C0.715992 19.7145 1.08882 19.8618 1.47583 19.8577H18.5183C18.9061 19.8625 19.28 19.7157 19.5578 19.4495C19.8356 19.1833 19.9946 18.8196 20 18.4381V1.60252C19.9945 1.22126 19.8353 0.857746 19.5575 0.59185C19.2797 0.325953 18.9059 0.179423 18.5183 0.184451" fill="#0A66C2"/>
</svg>
