<svg width="20" height="20" viewBox="0 0 20 20" fill="none" xmlns="http://www.w3.org/2000/svg">
<path d="M15.8333 0.833333L11.6666 5V14.1667L15.8333 10.4167V0.833333ZM17.4999 4.16667V15.4167C16.5833 15.125 15.5833 15 14.5833 15C13.1666 15 11.1249 15.5417 9.99992 16.25V5C8.79159 4.08333 7.04159 3.75 5.41659 3.75C3.79159 3.75 2.04159 4.08333 0.833252 5V17.2083C0.833252 17.4167 1.04159 17.625 1.24992 17.625C1.33325 17.625 1.37492 17.5833 1.45825 17.5833C2.58325 17.0417 4.20825 16.6667 5.41659 16.6667C7.04159 16.6667 8.79159 17 9.99992 17.9167C11.1249 17.2083 13.1666 16.6667 14.5833 16.6667C15.9583 16.6667 17.3749 16.9167 18.5416 17.5417C18.6249 17.5833 18.6666 17.5833 18.7499 17.5833C18.9583 17.5833 19.1666 17.375 19.1666 17.1667V5C18.6666 4.625 18.1249 4.375 17.4999 4.16667ZM8.33325 15.3417C7.29159 15.075 6.24992 15 5.41659 15C4.53325 15 3.48325 15.1583 2.49992 15.4167V5.94167C3.25825 5.60833 4.28325 5.41667 5.41659 5.41667C6.54992 5.41667 7.57492 5.60833 8.33325 5.94167V15.3417Z" fill="white"/>
</svg>
