<svg width="39" height="35" viewBox="0 0 39 35" fill="none" xmlns="http://www.w3.org/2000/svg">
<path d="M38.3362 28.907L37.7486 33.399C30.8677 32.5018 23.8691 32.2673 16.9541 32.7048C12.4493 32.9922 7.93078 33.5645 3.47883 34.4156C1.91639 34.7141 0.399993 33.7103 0.0656705 32.1547C0.0221745 31.9483 0 31.7427 0 31.5398C0 30.4344 0.630266 29.3999 1.65541 28.9001C5.46174 27.0452 11.8369 22.8457 14.1447 14.8125C15.5221 10.0177 15.1707 4.76154 13.1571 0.0110872H18.0048C19.8086 5.23658 19.9894 10.8689 18.4978 16.0637C17.2756 20.3212 14.9499 24.1608 11.6876 27.3548C20.1472 23.3932 25.4793 15.3763 25.2934 5.6741C25.22 3.97861 25.0239 1.90103 24.5548 0.0110872L25.2038 0C25.2038 0.00426432 25.2064 0.00682291 25.2064 0.0110872C28.1556 12.0586 23.655 22.6 13.9904 28.3893C14.8816 28.31 15.7746 28.2392 16.6675 28.1837C23.8734 27.7283 31.1636 27.9714 38.3362 28.907Z" fill="url(#paint0_linear_580_2999)"/>
<defs>
<linearGradient id="paint0_linear_580_2999" x1="7.53859" y1="49.9183" x2="37.5448" y2="-5.71435" gradientUnits="userSpaceOnUse">
<stop offset="0.3431" stop-color="#833DDD"/>
<stop offset="0.9098" stop-color="#EF43DA"/>
</linearGradient>
</defs>
</svg>
