<svg width="125" height="35" viewBox="0 0 125 35" fill="none" xmlns="http://www.w3.org/2000/svg">
<g clip-path="url(#clip0_135_2875)">
<path d="M51.0575 24.2051H59.8923V27.1961H47.9275V7.80884H51.0575V24.2051Z" fill="#833DDD"/>
<path d="M62.485 5.09418C63.0761 5.09418 63.5648 5.27413 63.9528 5.63404C64.3409 5.99395 64.5345 6.45108 64.5345 7.00545C64.5345 7.57772 64.3409 8.0485 63.9528 8.41779C63.5648 8.78708 63.0761 8.9713 62.485 8.9713C61.9128 8.9713 61.4326 8.78708 61.0445 8.41779C60.6565 8.0485 60.4629 7.57772 60.4629 7.00545C60.4629 6.45108 60.6565 5.9948 61.0445 5.63404C61.4317 5.27413 61.9119 5.09418 62.485 5.09418ZM60.9337 27.1961V11.9631H64.0637V27.1961H60.9337Z" fill="#833DDD"/>
<path d="M64.9736 11.964V14.8995H67.7992V21.3515C67.7992 23.3659 68.316 24.8977 69.3497 25.9501C70.3833 27.0025 71.7215 27.5288 73.3658 27.5288C74.7713 27.5288 76.0259 27.2644 77.1269 26.733V23.8836C75.7214 24.3749 74.6519 24.6179 73.9202 24.6179C71.9245 24.6179 70.9283 23.4742 70.9283 21.1843V14.8987H77.1883V11.9631H70.9283V7.80969H67.7983V11.964H64.9736Z" fill="#833DDD"/>
<path d="M85.9483 7.80884C88.0531 7.80884 89.6966 8.38623 90.8778 9.54015C92.0591 10.6941 92.6501 12.1849 92.6501 14.0134C92.6501 15.8599 92.0548 17.3746 90.8633 18.5558C89.6727 19.7378 88.0335 20.328 85.9474 20.328H80.4848C80.4737 20.328 80.4652 20.3366 80.4652 20.3476V27.1765C80.4652 27.1876 80.4567 27.1961 80.4456 27.1961H78.1864C78.1753 27.1961 78.1667 27.1876 78.1667 27.1765V9.228C78.1667 8.44422 78.8021 7.80884 79.5859 7.80884H85.9483ZM85.8655 18.1396C87.3239 18.1396 88.4318 17.7524 89.1892 16.9763C89.9457 16.201 90.3243 15.2219 90.3243 14.0407C90.3243 12.8595 89.9457 11.8898 89.1892 11.1324C88.4318 10.3751 87.3239 9.99729 85.8655 9.99729H80.4848C80.4737 9.99729 80.4652 10.0058 80.4652 10.0169V18.12C80.4652 18.1311 80.4737 18.1396 80.4848 18.1396H85.8655Z" fill="#833DDD"/>
<path d="M106.079 11.9631H108.379V27.1961H106.079V24.1215C105.47 25.174 104.662 26.0004 103.656 26.6C102.65 27.1995 101.5 27.4997 100.208 27.4997C98.1399 27.4997 96.4367 26.7569 95.0977 25.2703C93.7587 23.7846 93.0901 21.887 93.0901 19.5792C93.0901 17.2713 93.7587 15.3737 95.0977 13.8872C96.4359 12.4015 98.1399 11.6578 100.208 11.6578C101.5 11.6578 102.654 11.9622 103.67 12.572C104.685 13.1818 105.488 14.0219 106.079 15.0923V11.9631ZM100.651 25.313C102.22 25.313 103.521 24.7731 104.556 23.6925C105.59 22.612 106.107 21.2414 106.107 19.58C106.107 17.9178 105.591 16.5472 104.556 15.4667C103.521 14.3861 102.22 13.8462 100.651 13.8462C99.0994 13.8462 97.8397 14.3861 96.87 15.4667C95.9003 16.5472 95.4158 17.9178 95.4158 19.58C95.4158 21.2602 95.9045 22.6358 96.8836 23.707C97.8627 24.7774 99.1181 25.313 100.651 25.313Z" fill="#833DDD"/>
<path d="M117.274 25.313C118.843 25.313 120.145 24.7732 121.179 23.6926C122.213 22.612 122.73 21.2414 122.73 19.5801C122.73 17.9178 122.214 16.5473 121.179 15.4667C120.145 14.3861 118.843 13.8463 117.274 13.8463C115.741 13.8463 114.486 14.3861 113.507 15.4667C112.528 16.5473 112.039 17.9178 112.039 19.5801C112.039 21.2602 112.528 22.6359 113.507 23.7071C114.486 24.7774 115.741 25.313 117.274 25.313ZM125 7.61609V27.1961H122.702V24.1207C122.111 25.174 121.308 25.9996 120.293 26.6C119.278 27.2004 118.123 27.5006 116.83 27.5006C114.762 27.5006 113.06 26.7569 111.721 25.2704C110.382 23.7838 109.713 21.8879 109.713 19.5801C109.713 17.2697 110.382 15.3737 111.721 13.8872C113.06 12.4007 114.762 11.657 116.83 11.657C118.123 11.657 119.278 11.9623 120.293 12.5721C121.308 13.1802 122.111 14.0202 122.702 15.0931V7.61609H125Z" fill="#833DDD"/>
<path d="M38.3362 28.907L37.7486 33.399C30.8677 32.5018 23.8691 32.2673 16.9541 32.7048C12.4493 32.9922 7.93078 33.5645 3.47883 34.4156C1.91639 34.7141 0.399993 33.7103 0.0656705 32.1547C0.0221745 31.9483 0 31.7427 0 31.5398C0 30.4344 0.630266 29.3999 1.65541 28.9001C5.46174 27.0452 11.8369 22.8457 14.1447 14.8125C15.5221 10.0177 15.1707 4.76154 13.1571 0.0110872H18.0048C19.8086 5.23658 19.9894 10.8689 18.4978 16.0637C17.2756 20.3212 14.9499 24.1608 11.6876 27.3548C20.1472 23.3932 25.4793 15.3763 25.2934 5.6741C25.22 3.97861 25.0239 1.90103 24.5548 0.0110872L25.2038 0C25.2038 0.00426432 25.2064 0.00682291 25.2064 0.0110872C28.1556 12.0586 23.655 22.6 13.9904 28.3893C14.8816 28.31 15.7746 28.2392 16.6675 28.1837C23.8734 27.7283 31.1636 27.9714 38.3362 28.907Z" fill="url(#paint0_linear_135_2875)"/>
</g>
<defs>
<linearGradient id="paint0_linear_135_2875" x1="7.53859" y1="49.9183" x2="37.5448" y2="-5.71435" gradientUnits="userSpaceOnUse">
<stop offset="0.3431" stop-color="#833DDD"/>
<stop offset="0.9098" stop-color="#EF43DA"/>
</linearGradient>
<clipPath id="clip0_135_2875">
<rect width="125" height="34.4676" fill="white"/>
</clipPath>
</defs>
</svg>
