<svg width="30" height="30" viewBox="0 0 30 30" fill="none" xmlns="http://www.w3.org/2000/svg">
<g clip-path="url(#clip0_135_2922)">
<path d="M4.11703 19.4695C8.05594 23.4075 14.2627 23.6822 18.5236 20.3039L19.4114 21.1908L18.6741 21.9277L24.6947 27.9478C24.4706 28.3022 24.3736 28.575 24.4856 28.6861L24.8152 29.0152C25.3509 29.5519 29.5514 25.35 29.0156 24.8142L28.6861 24.4856C28.575 24.3741 28.3027 24.4702 27.9492 24.6942L21.9277 18.6741L21.1908 19.4109L20.3034 18.5236C23.6812 14.2622 23.407 8.055 19.4695 4.11656C15.2302 -0.122349 8.35641 -0.122349 4.11703 4.11656C-0.122813 8.35687 -0.121875 15.2302 4.11703 19.4695ZM5.39625 5.39671C8.92875 1.86375 14.6583 1.86375 18.1898 5.39671C21.7228 8.92875 21.7228 14.6583 18.1898 18.1903C14.6573 21.7237 8.92969 21.7228 5.39625 18.1903C1.86469 14.6573 1.86375 8.92968 5.39625 5.39671Z" fill="#2B1744"/>
<path d="M4.07014 11.2041C4.45954 12.2385 5.06504 13.178 5.84623 13.9599C8.8992 17.0133 13.8506 17.0133 16.905 13.9584C18.1959 12.6714 18.9943 10.9723 19.1611 9.15704C20.2186 11.9456 19.6298 15.2161 17.3845 17.4614C14.3306 20.5153 9.3792 20.5153 6.3253 17.4614C4.61248 15.75 3.86202 13.441 4.07014 11.2041Z" fill="#2B1744"/>
</g>
<defs>
<clipPath id="clip0_135_2922">
<rect width="30" height="30" fill="white"/>
</clipPath>
</defs>
</svg>
