<svg width="30" height="30" viewBox="0 0 30 30" fill="none" xmlns="http://www.w3.org/2000/svg">
<mask id="path-1-inside-1_409_5615" fill="white">
<path d="M13.3562 22.5C14.2625 19.2188 17.4312 16.875 21.0812 17.2625C24.5562 17.6313 27.3187 20.5625 27.4937 24.05C27.5375 24.9688 27.4125 25.85 27.1437 26.6687C26.9812 27.1687 26.4937 27.5 25.9625 27.5H7.3487C4.1937 27.5 1.82745 24.6131 2.4462 21.5194L6.24995 2.5H13.75L16.25 6.875L10.8937 10.7062L9.37495 8.75"/>
</mask>
<path d="M21.0812 17.2625L20.9017 18.953L20.9018 18.953L21.0812 17.2625ZM27.4937 24.05L29.1918 23.9691L29.1916 23.9648L27.4937 24.05ZM27.1437 26.6687L25.5285 26.1386L25.5269 26.1433L27.1437 26.6687ZM2.4462 21.5194L4.11319 21.8528L4.11319 21.8528L2.4462 21.5194ZM6.24995 2.5V0.8H4.85628L4.58296 2.16661L6.24995 2.5ZM13.75 2.5L15.226 1.65656L14.7365 0.8H13.75V2.5ZM16.25 6.875L17.239 8.25769L18.4877 7.36453L17.726 6.03156L16.25 6.875ZM10.8937 10.7062L9.55088 11.7488L10.5533 13.0399L11.8827 12.0889L10.8937 10.7062ZM14.9949 22.9526C15.6877 20.4438 18.109 18.6565 20.9017 18.953L21.2607 15.572C16.7534 15.0935 12.8372 17.9937 11.7176 22.0474L14.9949 22.9526ZM20.9018 18.953C23.5416 19.2331 25.6626 21.4807 25.7958 24.1352L29.1916 23.9648C28.9748 19.6443 25.5708 16.0294 21.2606 15.572L20.9018 18.953ZM25.7956 24.1309C25.8295 24.8424 25.7327 25.5165 25.5285 26.1386L28.7589 27.1989C29.0922 26.1835 29.2454 25.0951 29.1918 23.9691L25.7956 24.1309ZM25.5269 26.1433C25.609 25.8908 25.8135 25.8 25.9625 25.8V29.2C27.1739 29.2 28.3534 28.4467 28.7605 27.1942L25.5269 26.1433ZM25.9625 25.8H7.3487V29.2H25.9625V25.8ZM7.3487 25.8C5.26669 25.8 3.70479 23.8948 4.11319 21.8528L0.779215 21.186C-0.0498831 25.3315 3.12072 29.2 7.3487 29.2V25.8ZM4.11319 21.8528L7.91694 2.83339L4.58296 2.16661L0.779213 21.186L4.11319 21.8528ZM6.24995 4.2H13.75V0.8H6.24995V4.2ZM12.2739 3.34344L14.7739 7.71844L17.726 6.03156L15.226 1.65656L12.2739 3.34344ZM15.2609 5.49231L9.90468 9.32356L11.8827 12.0889L17.239 8.25769L15.2609 5.49231ZM12.2365 9.66374L10.7178 7.70749L8.03213 9.79251L9.55088 11.7488L12.2365 9.66374Z" fill="#5A1F52" mask="url(#path-1-inside-1_409_5615)"/>
<path d="M13.3562 22.5C14.2625 19.2188 17.4312 16.875 21.0812 17.2625C24.5562 17.6313 27.3187 20.5625 27.4937 24.05C27.5375 24.9687 27.4125 25.85 27.1437 26.6687C26.9812 27.1687 26.4937 27.5 25.9625 27.5H7.3487C4.1937 27.5 1.82745 24.6131 2.4462 21.5194L6.24995 2.5H13.75L16.25 6.875L10.8937 10.7062L9.37495 8.75M10.9 10.7062L13.75 21.25" stroke="#5A1F52" stroke-width="1.7" stroke-miterlimit="2" stroke-linecap="round" stroke-linejoin="round"/>
</svg>
