<svg width="30" height="30" viewBox="0 0 30 30" fill="none" xmlns="http://www.w3.org/2000/svg">
<path d="M17.8125 26.25C17.8125 26.4986 17.7137 26.7371 17.5379 26.9129C17.3621 27.0887 17.1236 27.1875 16.875 27.1875H13.125C12.8763 27.1875 12.6379 27.0887 12.4621 26.9129C12.2862 26.7371 12.1875 26.4986 12.1875 26.25C12.1875 26.0014 12.2862 25.7629 12.4621 25.5871C12.6379 25.4113 12.8763 25.3125 13.125 25.3125H16.875C17.1236 25.3125 17.3621 25.4113 17.5379 25.5871C17.7137 25.7629 17.8125 26.0014 17.8125 26.25ZM15 13.125C15.2781 13.125 15.55 13.0425 15.7812 12.888C16.0125 12.7335 16.1927 12.5139 16.2992 12.2569C16.4056 11.9999 16.4335 11.7172 16.3792 11.4444C16.3249 11.1716 16.191 10.921 15.9943 10.7244C15.7977 10.5277 15.5471 10.3938 15.2743 10.3395C15.0015 10.2853 14.7188 10.3131 14.4618 10.4195C14.2049 10.526 13.9852 10.7062 13.8307 10.9375C13.6762 11.1687 13.5937 11.4406 13.5937 11.7187C13.5937 12.0917 13.7419 12.4494 14.0056 12.7131C14.2693 12.9768 14.627 13.125 15 13.125ZM26.2054 18.2613L24.757 24.7805C24.6883 25.09 24.5422 25.3771 24.3323 25.6149C24.1225 25.8526 23.8558 26.0333 23.5571 26.1399C23.2585 26.2466 22.9377 26.2758 22.6247 26.2247C22.3117 26.1737 22.0168 26.0441 21.7675 25.848L18.5754 23.4375H11.4269L8.23239 25.848C7.98312 26.0441 7.6882 26.1737 7.37523 26.2247C7.06225 26.2758 6.74144 26.2466 6.4428 26.1399C6.14416 26.0333 5.87744 25.8526 5.66761 25.6149C5.45776 25.3771 5.31165 25.09 5.24294 24.7805L3.7945 18.2613C3.73306 17.9816 3.73616 17.6915 3.80358 17.4131C3.87099 17.1347 4.00094 16.8753 4.18356 16.6547L7.53044 12.6398C7.64277 11.1644 7.9815 9.71499 8.53473 8.34258C10.0465 4.55273 12.7535 2.175 13.8515 1.3289C14.1802 1.07424 14.5842 0.936035 15 0.936035C15.4158 0.936035 15.8197 1.07424 16.1484 1.3289C17.2429 2.175 19.9535 4.55273 21.4652 8.34258C22.0184 9.71499 22.3572 11.1644 22.4695 12.6398L25.8164 16.6547C25.999 16.8753 26.129 17.1347 26.1964 17.4131C26.2638 17.6915 26.2669 17.9816 26.2054 18.2613ZM11.6519 21.5625H18.348C20.823 17.1633 21.2859 12.9516 19.7238 9.0375C18.3457 5.58281 15.7605 3.39843 15 2.8125C14.2371 3.39843 11.6519 5.58281 10.2738 9.0375C8.71403 12.9516 9.17692 17.1633 11.6519 21.5625ZM9.89411 22.248C8.63239 19.9551 7.86677 17.7016 7.59723 15.4875L5.62497 17.8547L7.07341 24.375L7.0945 24.3598L9.89411 22.248ZM24.375 17.8547L22.4027 15.4875C22.1355 17.6969 21.3715 19.9504 20.1105 22.248L22.9054 24.3574L22.9265 24.3727L24.375 17.8547Z" fill="#5A1F52"/>
</svg>
