<svg width="19" height="19" viewBox="0 0 19 19" fill="none" xmlns="http://www.w3.org/2000/svg">
<path d="M4.84745 0.352419L5.28245 1.69117C5.41787 2.09808 5.64634 2.4678 5.9497 2.77094C6.25306 3.07408 6.62294 3.30228 7.02995 3.43742L8.36995 3.87242L8.39745 3.87992C8.5007 3.91627 8.59013 3.98377 8.65339 4.0731C8.71665 4.16244 8.75063 4.2692 8.75063 4.37867C8.75063 4.48814 8.71665 4.5949 8.65339 4.68424C8.59013 4.77357 8.5007 4.84107 8.39745 4.87742L7.05745 5.31242C6.6503 5.44756 6.28026 5.67575 5.9767 5.97888C5.67314 6.282 5.44442 6.65172 5.3087 7.05867L4.87495 8.39617C4.8386 8.49942 4.7711 8.58885 4.68177 8.65211C4.59243 8.71537 4.48566 8.74935 4.3762 8.74935C4.26673 8.74935 4.15996 8.71537 4.07063 8.65211C3.98129 8.58885 3.9138 8.49942 3.87745 8.39617L3.44245 7.05867C3.30807 6.65014 3.07991 6.27875 2.77625 5.97421C2.47258 5.66968 2.10184 5.44046 1.6937 5.30492L0.352447 4.86992C0.249192 4.83357 0.159764 4.76607 0.0965031 4.67674C0.0332423 4.5874 -0.000732422 4.48063 -0.000732422 4.37117C-0.000732422 4.2617 0.0332423 4.15494 0.0965031 4.0656C0.159764 3.97627 0.249192 3.90877 0.352447 3.87242L1.69245 3.43742C2.09451 3.29866 2.45906 3.06885 2.75764 2.76593C3.05622 2.46301 3.28075 2.09519 3.4137 1.69117L3.84995 0.353669C3.88603 0.24998 3.9535 0.160095 4.04298 0.0964869C4.13247 0.0328792 4.23953 -0.00129604 4.34932 -0.00129604C4.45911 -0.00129604 4.56618 0.0328792 4.65566 0.0964869C4.74515 0.160095 4.81261 0.24998 4.8487 0.353669M10.9799 10.2674L10.0224 9.95742C9.73177 9.86055 9.46767 9.69724 9.25112 9.48048C9.03457 9.26371 8.87153 8.99945 8.77495 8.70867L8.46245 7.75367C8.43657 7.67984 8.38839 7.61587 8.32456 7.57061C8.26074 7.52535 8.18444 7.50104 8.1062 7.50104C8.02796 7.50104 7.95165 7.52535 7.88783 7.57061C7.82401 7.61587 7.77583 7.67984 7.74995 7.75367L7.43995 8.70867C7.3453 8.99767 7.18499 9.26082 6.97158 9.47748C6.75818 9.69414 6.49749 9.85841 6.20995 9.95742L5.2537 10.2674C5.17986 10.2933 5.11589 10.3415 5.07063 10.4053C5.02538 10.4691 5.00107 10.5454 5.00107 10.6237C5.00107 10.7019 5.02538 10.7782 5.07063 10.842C5.11589 10.9059 5.17986 10.954 5.2537 10.9799L6.20995 11.2912C6.5015 11.3881 6.76635 11.5518 6.98339 11.7693C7.20042 11.9867 7.36361 12.2519 7.45995 12.5437L7.76995 13.4987C7.79583 13.5725 7.84401 13.6365 7.90783 13.6817C7.97165 13.727 8.04796 13.7513 8.1262 13.7513C8.20444 13.7513 8.28074 13.727 8.34457 13.6817C8.40839 13.6365 8.45657 13.5725 8.48245 13.4987L8.7937 12.5437C8.89023 12.2527 9.0534 11.9882 9.2702 11.7714C9.487 11.5546 9.75144 11.3915 10.0424 11.2949L10.9987 10.9849C11.0725 10.959 11.1365 10.9109 11.1818 10.847C11.227 10.7832 11.2513 10.7069 11.2513 10.6287C11.2513 10.5504 11.227 10.4741 11.1818 10.4103C11.1365 10.3465 11.0725 10.2983 10.9987 10.2724L10.9799 10.2674ZM6.59495 13.9374C6.62745 14.0199 6.6662 14.0999 6.70995 14.1749L6.3062 14.5787C6.21764 14.6676 6.1509 14.7759 6.1112 14.8949L5.36245 17.1374L7.60495 16.3899C7.72401 16.3502 7.83226 16.2835 7.9212 16.1949L15.7887 8.32742C15.8006 8.31434 15.8131 8.30183 15.8262 8.28992L17.1649 6.95242C17.3794 6.73809 17.5 6.44733 17.5001 6.14411C17.5002 5.84089 17.3799 5.55004 17.1656 5.33554C16.9512 5.12105 16.6605 5.00048 16.3573 5.00037C16.054 5.00025 15.7632 5.12059 15.5487 5.33492L11.6524 9.23117C11.5593 9.17992 11.4618 9.13684 11.3612 9.10242L10.4112 8.78992C10.3904 8.78302 10.37 8.77509 10.3499 8.76617L14.6662 4.44992C15.1151 4.00121 15.7238 3.74919 16.3585 3.7493C16.9932 3.74942 17.6019 4.00167 18.0506 4.45054C18.4993 4.89942 18.7513 5.50817 18.7512 6.14286C18.7511 6.77756 18.4988 7.38621 18.0499 7.83492L17.1337 8.74992L17.4625 9.07867C17.8724 9.48886 18.1026 10.045 18.1026 10.6249C18.1026 11.2048 17.8724 11.761 17.4625 12.1712L16.0674 13.5674C16.0093 13.6254 15.9404 13.6715 15.8645 13.7028C15.7886 13.7342 15.7073 13.7503 15.6251 13.7503C15.543 13.7502 15.4617 13.734 15.3859 13.7025C15.31 13.671 15.2411 13.6249 15.1831 13.5668C15.125 13.5087 15.079 13.4397 15.0477 13.3638C15.0163 13.2879 15.0002 13.2066 15.0002 13.1245C15.0003 13.0424 15.0165 12.9611 15.048 12.8852C15.0795 12.8094 15.1256 12.7404 15.1837 12.6824L16.5787 11.2874C16.7543 11.1116 16.8529 10.8734 16.8529 10.6249C16.8529 10.3765 16.7543 10.1382 16.5787 9.96242L16.2499 9.63367L8.8062 17.0774C8.58005 17.3034 8.30446 17.4737 8.0012 17.5749L4.57245 18.7174C4.46243 18.7539 4.34442 18.7591 4.23163 18.7324C4.11883 18.7057 4.01568 18.6481 3.93372 18.5661C3.85175 18.4842 3.79419 18.381 3.76748 18.2682C3.74077 18.1554 3.74595 18.0374 3.78245 17.9274L4.92495 14.4987C5.02495 14.1949 5.1962 13.9199 5.42245 13.6937L6.2437 12.8724C6.25261 12.893 6.26095 12.9139 6.2687 12.9349L6.59495 13.9374Z" fill="#2B1744"/>
</svg>
